# xmcd
#
# Track frame offsets: 
#        150
#        14061
#        27742
#        47935
#        74207
#        90595
#        107779
#        123196
#        138570
#        157574
#        176645
#        189445
#
# Disc length: 2611 seconds
#
# Revision: 1
# Processed by: cddbd v1.5.2PL0 Copyright (c) Steve Scherf et al.
# Submitted via: ExactAudioCopy v0.95b3
#
DISCID=aa0a310c
DTITLE=Oak Ridge Boys - Colors
DYEAR=2003
DGENRE=Country
TTITLE0=Colors
TTITLE1=The Absence of Love
TTITLE2=The Home Stretch
TTITLE3=American Beauty
TTITLE4=This is America
TTITLE5=An American Family
TTITLE6=Let it Ride
TTITLE7=Sincerely, I Remain
TTITLE8=G.I. Joe and Lillie
TTITLE9=Glory Bound
TTITLE10=Thank God For Kids
TTITLE11=The Star Spangled Banner
EXTD=
EXTT0=
EXTT1=
EXTT2=
EXTT3=
EXTT4=
EXTT5=
EXTT6=
EXTT7=
EXTT8=
EXTT9=
EXTT10=
EXTT11=
PLAYORDER=
